{
  "accessors": [
    {
      "bufferView": 2,
      "componentType": 5126,
      "count": 3370,
      "max": [
        9.953472137451172,
        12.673027038574219,
        45.94715118408203
      ],
      "min": [
        -44.81474304199219,
        -12.046910285949707,
        -28.020111083984375
      ],
      "type": "VEC3"
    },
    {
      "bufferView": 2,
      "byteOffset": 40440,
      "componentType": 5126,
      "count": 3370,
      "max": [
        0.9999210834503174,
        0.9965676665306091,
        0.9992671608924866
      ],
      "min": [
        -0.9999253153800964,
        -0.9999823570251465,
        -0.9982177019119263
      ],
      "type": "VEC3"
    },
    {
      "bufferView": 3,
      "componentType": 5126,
      "count": 3370,
      "max": [
        0.9991520047187805,
        0.9983187913894653,
        0.9669561982154846,
        1.0
      ],
      "min": [
        -0.9997271299362183,
        -0.999653697013855,
        -0.9984405636787415,
        -1.0
      ],
      "type": "VEC4"
    },
    {
      "bufferView": 1,
      "componentType": 5126,
      "count": 3370,
      "max": [
        0.9920134544372559,
        0.9809463024139404
      ],
      "min": [
        0.0026490609161555767,
        0.008111119270324707
      ],
      "type": "VEC2"
    },
    {
      "bufferView": 1,
      "byteOffset": 26960,
      "componentType": 5126,
      "count": 3370,
      "max": [
        0.9920134544372559,
        0.9809463024139404
      ],
      "min": [
        0.0026490609161555767,
        0.008111119270324707
      ],
      "type": "VEC2"
    },
    {
      "bufferView": 0,
      "componentType": 5125,
      "count": 14280,
      "type": "SCALAR"
    }
  ],
  "asset": {
    "extras": {
      "author": "DJMaesen (https://sketchfab.com/bumstrum)",
      "license": "CC-BY-4.0 (http://creativecommons.org/licenses/by/4.0/)",
      "source": "https://sketchfab.com/3d-models/fps-arms-9452ce4cddde4110a4fd73e555a8e412",
      "title": "Fps arms"
    },
    "generator": "Sketchfab-12.66.0",
    "version": "2.0"
  },
  "bufferViews": [
    {
      "buffer": 0,
      "byteLength": 57120,
      "name": "floatBufferViews",
      "target": 34963
    },
    {
      "buffer": 0,
      "byteLength": 53920,
      "byteOffset": 57120,
      "byteStride": 8,
      "name": "floatBufferViews",
      "target": 34962
    },
    {
      "buffer": 0,
      "byteLength": 80880,
      "byteOffset": 111040,
      "byteStride": 12,
      "name": "floatBufferViews",
      "target": 34962
    },
    {
      "buffer": 0,
      "byteLength": 53920,
      "byteOffset": 191920,
      "byteStride": 16,
      "name": "floatBufferViews",
      "target": 34962
    }
  ],
  "buffers": [
    {
      "byteLength": 245840,
      "uri": "scene.bin"
    }
  ],
  "images": [
    {
      "uri": "textures/material_baseColor.png"
    },
    {
      "uri": "textures/material_metallicRoughness.png"
    },
    {
      "uri": "textures/material_normal.png"
    }
  ],
  "materials": [
    {
      "name": "material",
      "normalTexture": {
        "index": 2
      },
      "pbrMetallicRoughness": {
        "baseColorTexture": {
          "index": 0
        },
        "metallicFactor": 0.0,
        "metallicRoughnessTexture": {
          "index": 1
        }
      }
    }
  ],
  "meshes": [
    {
      "name": "mesh_Mat_0",
      "primitives": [
        {
          "attributes": {
            "NORMAL": 1,
            "POSITION": 0,
            "TANGENT": 2,
            "TEXCOORD_0": 3,
            "TEXCOORD_1": 4
          },
          "indices": 5,
          "material": 0,
          "mode": 4
        }
      ]
    }
  ],
  "nodes": [
    {
      "children": [
        1
      ],
      "matrix": [
        1.0,
        0.0,
        0.0,
        0.0,
        0.0,
        2.220446049250313e-16,
        -1.0,
        0.0,
        0.0,
        1.0,
        2.220446049250313e-16,
        0.0,
        0.0,
        0.0,
        0.0,
        1.0
      ],
      "name": "Sketchfab_model"
    },
    {
      "children": [
        2
      ],
      "matrix": [
        1.0,
        0.0,
        0.0,
        0.0,
        0.0,
        0.0,
        1.0,
        0.0,
        0.0,
        -1.0,
        0.0,
        0.0,
        0.0,
        0.0,
        0.0,
        1.0
      ],
      "name": "99d593040eb94455ba3770cd0e86dbd4.fbx"
    },
    {
      "children": [
        3
      ],
      "name": "RootNode"
    },
    {
      "children": [
        4
      ],
      "matrix": [
        0.9980669146688748,
        0.012562514625999542,
        0.060865565549205095,
        0.0,
        -0.02052151832981796,
        0.9910425022647563,
        0.1319606986577796,
        0.0,
        -0.05866260417669829,
        -0.13295466118599197,
        0.9893845344152727,
        0.0,
        17.12139320373535,
        6.739512920379639,
        0.754114031791687,
        1.0
      ],
      "name": "mesh"
    },
    {
      "mesh": 0,
      "name": "mesh_Mat_0"
    }
  ],
  "samplers": [
    {
      "magFilter": 9729,
      "minFilter": 9987,
      "wrapS": 10497,
      "wrapT": 10497
    }
  ],
  "scene": 0,
  "scenes": [
    {
      "name": "Sketchfab_Scene",
      "nodes": [
        0
      ]
    }
  ],
  "textures": [
    {
      "sampler": 0,
      "source": 0
    },
    {
      "sampler": 0,
      "source": 1
    },
    {
      "sampler": 0,
      "source": 2
    }
  ]
}
